<svg version="1.0" preserveAspectRatio="xMidYMid meet" viewBox="0 133.499996796 374.25 125.99999697600002" zoomAndPan="magnify" xmlns:xlink="http://www.w3.org/1999/xlink" xmlns="http://www.w3.org/2000/svg" style="max-height: 500px" width="374.25" height="125.99999697600002"><defs><filter id="0f02c03c5c" height="100%" width="100%" y="0%" x="0%"><feColorMatrix color-interpolation-filters="sRGB" values="0 0 0 0 1 0 0 0 0 1 0 0 0 0 1 0 0 0 1 0"/></filter><g/><mask id="408adf9781"><g filter="url(#0f02c03c5c)"><rect fill-opacity="0.91" height="449.999989" y="-37.499999" fill="#000000" width="450" x="-37.5"/></g></mask><clipPath id="9c4a13cf9e"><path clip-rule="nonzero" d="M 0.28125 0.878906 L 188.199219 0.878906 L 188.199219 75.039062 L 0.28125 75.039062 Z M 0.28125 0.878906"/></clipPath><clipPath id="fb11f986bb"><rect height="76" y="0" width="189" x="0"/></clipPath><clipPath id="fbd04d1be6"><rect height="76" y="0" width="189" x="0"/></clipPath><clipPath id="65475d0bcc"><path clip-rule="nonzero" d="M 80 15 L 118.761719 15 L 118.761719 60 L 80 60 Z M 80 15"/></clipPath><clipPath id="540686f1a5"><rect height="76" y="0" width="119" x="0"/></clipPath></defs><rect fill-opacity="1" height="449.999989" y="-37.499999" fill="#ffffff" width="450" x="-37.5"/><rect fill-opacity="1" height="449.999989" y="-37.499999" fill="#ffffff" width="450" x="-37.5"/><g mask="url(#408adf9781)"><g transform="matrix(1, 0, 0, 1, 41, 158)"><g clip-path="url(#fbd04d1be6)"><g clip-path="url(#9c4a13cf9e)"><g transform="matrix(1, 0, 0, 1, -0.000000000000007105, 0)"><g clip-path="url(#fb11f986bb)"><g fill-opacity="1" fill="#000000"><g transform="translate(1.159676, 59.62752)"><g><path d="M 14.28125 0 L 14.28125 -34.921875 L 1.171875 -34.921875 L 1.171875 -43.671875 L 36.375 -43.671875 L 36.375 -34.921875 L 23.265625 -34.921875 L 23.265625 0 Z M 14.28125 0"/></g></g></g><g fill-opacity="1" fill="#000000"><g transform="translate(32.449501, 59.62752)"><g><path d="M 38.65625 0 L 28.609375 0 L 19.578125 -15.671875 L 14.109375 -15.671875 L 14.109375 0 L 5.078125 0 L 5.078125 -43.671875 L 22.3125 -43.671875 C 25.132812 -43.671875 27.71875 -43.160156 30.0625 -42.140625 C 32.40625 -41.117188 34.273438 -39.582031 35.671875 -37.53125 C 37.066406 -35.488281 37.765625 -32.925781 37.765625 -29.84375 C 37.765625 -23.476562 34.769531 -19.21875 28.78125 -17.0625 Z M 21.640625 -24.046875 C 22.753906 -24.046875 23.847656 -24.226562 24.921875 -24.59375 C 26.003906 -24.96875 26.890625 -25.5625 27.578125 -26.375 C 28.265625 -27.195312 28.609375 -28.296875 28.609375 -29.671875 C 28.609375 -31.085938 28.253906 -32.1875 27.546875 -32.96875 C 26.847656 -33.75 25.96875 -34.304688 24.90625 -34.640625 C 23.84375 -34.972656 22.738281 -35.140625 21.59375 -35.140625 L 14.109375 -35.140625 L 14.109375 -24.046875 Z M 21.640625 -24.046875"/></g></g></g><g fill-opacity="1" fill="#000000"><g transform="translate(66.97434, 59.62752)"><g><path d="M 9.03125 0 L -0.0625 0 L 16.625 -43.671875 L 27.5 -43.671875 L 44.234375 0 L 34.921875 0 L 31.625 -8.8125 L 12.265625 -8.8125 Z M 21.984375 -34.921875 L 15.390625 -17.1875 L 28.5625 -17.1875 Z M 21.984375 -34.921875"/></g></g></g><g fill-opacity="1" fill="#000000"><g transform="translate(104.901533, 59.62752)"><g><path d="M 2.40625 -21.8125 C 2.40625 -24.96875 2.988281 -27.910156 4.15625 -30.640625 C 5.320312 -33.378906 6.945312 -35.769531 9.03125 -37.8125 C 11.113281 -39.863281 13.519531 -41.460938 16.25 -42.609375 C 18.988281 -43.765625 21.921875 -44.34375 25.046875 -44.34375 C 27.910156 -44.34375 30.671875 -43.835938 33.328125 -42.828125 C 35.984375 -41.828125 38.320312 -40.367188 40.34375 -38.453125 C 42.375 -36.546875 43.875 -34.210938 44.84375 -31.453125 L 36.59375 -27.671875 C 35.664062 -30.085938 34.1875 -32 32.15625 -33.40625 C 30.132812 -34.820312 27.742188 -35.53125 24.984375 -35.53125 C 22.460938 -35.53125 20.207031 -34.914062 18.21875 -33.6875 C 16.226562 -32.457031 14.65625 -30.8125 13.5 -28.75 C 12.34375 -26.6875 11.765625 -24.410156 11.765625 -21.921875 C 11.765625 -19.390625 12.332031 -17.082031 13.46875 -15 C 14.601562 -12.914062 16.164062 -11.25 18.15625 -10 C 20.144531 -8.757812 22.421875 -8.140625 24.984375 -8.140625 C 27.742188 -8.140625 30.15625 -8.890625 32.21875 -10.390625 C 34.28125 -11.898438 35.773438 -13.847656 36.703125 -16.234375 L 45.015625 -12.390625 C 44.015625 -9.628906 42.472656 -7.28125 40.390625 -5.34375 C 38.304688 -3.414062 35.914062 -1.941406 33.21875 -0.921875 C 30.519531 0.0976562 27.738281 0.609375 24.875 0.609375 C 21.71875 0.609375 18.769531 0.0390625 16.03125 -1.09375 C 13.300781 -2.226562 10.910156 -3.804688 8.859375 -5.828125 C 6.816406 -7.859375 5.226562 -10.238281 4.09375 -12.96875 C 2.96875 -15.695312 2.40625 -18.644531 2.40625 -21.8125 Z M 2.40625 -21.8125"/></g></g></g><g fill-opacity="1" fill="#000000"><g transform="translate(145.059779, 59.62752)"><g><path d="M 14.0625 0 L 5.078125 0 L 5.078125 -43.671875 L 14.0625 -43.671875 L 14.0625 -24.65625 L 29.0625 -43.671875 L 40.328125 -43.671875 L 23.65625 -22.8125 L 41.453125 0 L 29.78125 0 L 14.0625 -20.75 Z M 14.0625 0"/></g></g></g></g></g></g></g></g></g><g transform="matrix(1, 0, 0, 1, 223, 158)"><g clip-path="url(#540686f1a5)"><g fill-opacity="1" fill="#a531c6"><g transform="translate(1.253536, 59.62752)"><g><path d="M 1.390625 0 L 13.046875 -43.671875 L 22.203125 -43.671875 L 12.78125 -8.484375 L 31.34375 -8.484375 L 29.0625 0 Z M 1.390625 0"/></g></g></g><g fill-opacity="1" fill="#a531c6"><g transform="translate(35.890705, 59.62752)"><g><path d="M 1.390625 0 L 13.109375 -43.671875 L 41.5625 -43.671875 L 39.328125 -35.3125 L 19.90625 -35.3125 L 17.515625 -26.21875 L 34.859375 -26.21875 L 32.625 -17.90625 L 15.28125 -17.90625 L 12.71875 -8.375 L 32.296875 -8.375 L 30.0625 0 Z M 1.390625 0"/></g></g></g><g clip-path="url(#65475d0bcc)"><g fill-opacity="1" fill="#a531c6"><g transform="translate(74.041779, 59.62752)"><g><path d="M 19.46875 0 L 10.3125 0 L 19.640625 -35.03125 L 6.640625 -35.03125 L 8.921875 -43.671875 L 44.171875 -43.671875 L 41.84375 -35.03125 L 28.78125 -35.03125 Z M 19.46875 0"/></g></g></g></g></g></g></svg>