<svg xmlns="http://www.w3.org/2000/svg" xmlns:xlink="http://www.w3.org/1999/xlink" width="500" zoomAndPan="magnify" viewBox="0 0 375 374.999991" height="500" preserveAspectRatio="xMidYMid meet" version="1.0"><defs><clipPath id="67cf0c7291"><path d="M 40.753906 165 L 92 165 L 92 217 L 40.753906 217 Z M 40.753906 165 " clip-rule="nonzero"/></clipPath><clipPath id="cabdf17061"><path d="M 275 73.75 L 326.363281 73.75 L 326.363281 125 L 275 125 Z M 275 73.75 " clip-rule="nonzero"/></clipPath><clipPath id="265d7de98c"><path d="M 111 247 L 178 247 L 178 312.25 L 111 312.25 Z M 111 247 " clip-rule="nonzero"/></clipPath></defs><rect x="-37.5" width="450" fill="#ffffff" y="-37.499999" height="449.999989" fill-opacity="1"/><rect x="-37.5" width="450" fill="#ffffff" y="-37.499999" height="449.999989" fill-opacity="1"/><path fill="#262223" d="M 180.105469 171.472656 L 247.011719 171.472656 L 247.011719 238.378906 L 180.105469 238.378906 Z M 180.105469 171.472656 " fill-opacity="1" fill-rule="evenodd"/><g clip-path="url(#67cf0c7291)"><path fill="#262223" d="M 40.613281 165.796875 L 91.300781 165.796875 L 91.300781 216.484375 L 40.613281 216.484375 Z M 40.613281 165.796875 " fill-opacity="1" fill-rule="evenodd"/></g><g clip-path="url(#cabdf17061)"><path fill="#262223" d="M 275.792969 73.753906 L 326.480469 73.753906 L 326.480469 124.441406 L 275.792969 124.441406 Z M 275.792969 73.753906 " fill-opacity="1" fill-rule="evenodd"/></g><path fill="#262223" d="M 240.722656 257.640625 L 271.132812 257.640625 L 271.132812 288.050781 L 240.722656 288.050781 Z M 240.722656 257.640625 " fill-opacity="1" fill-rule="evenodd"/><path fill="#a531c6" d="M 131.75 126.363281 L 165.203125 126.363281 L 165.203125 159.816406 L 131.75 159.816406 Z M 131.75 126.363281 " fill-opacity="1" fill-rule="evenodd"/><g clip-path="url(#265d7de98c)"><path fill="#a531c6" d="M 111.980469 247.199219 L 177.367188 247.199219 L 177.367188 312.578125 L 111.980469 312.578125 Z M 111.980469 247.199219 " fill-opacity="1" fill-rule="evenodd"/></g><path fill="#a531c6" d="M 52.519531 234.328125 L 90.074219 234.328125 L 90.074219 271.882812 L 52.519531 271.882812 Z M 52.519531 234.328125 " fill-opacity="1" fill-rule="evenodd"/><path fill="#a531c6" d="M 261.195312 178.773438 L 293.636719 178.773438 L 293.636719 211.214844 L 261.195312 211.214844 Z M 261.195312 178.773438 " fill-opacity="1" fill-rule="evenodd"/><path fill="#a531c6" d="M 235.246094 85.511719 L 267.683594 85.511719 L 267.683594 117.953125 L 235.246094 117.953125 Z M 235.246094 85.511719 " fill-opacity="1" fill-rule="evenodd"/><path fill="#262223" d="M 252.625 274.894531 L 211.269531 208.605469 L 65.605469 195.003906 L 66.3125 187.28125 L 215.839844 201.242188 L 259.226562 270.792969 Z M 252.625 274.894531 " fill-opacity="1" fill-rule="nonzero"/><path fill="#262223" d="M 210.515625 202.527344 L 302.964844 85.746094 L 309.042969 90.546875 L 216.59375 207.328125 Z M 210.515625 202.527344 " fill-opacity="1" fill-rule="nonzero"/></svg>